<svg xmlns="http://www.w3.org/2000/svg" width="90" height="90" viewBox="0 0 90 90">
  <defs>
    <style>
      .a {
        fill: #fff;
        stroke: #1677FF;
        stroke-width: 4px;
      }

      .b {
        fill: none;
      }

      .c {
        fill: #1677FF;
      }

      .d {
        stroke: none;
      }
    </style>
  </defs>
  <g transform="translate(0.171 0.171)">
    <g class="a" transform="translate(-0.171 -0.171)">
      <circle class="d" cx="45" cy="45" r="45" />
      <circle class="b" cx="45" cy="45" r="43" />
    </g>
    <g transform="translate(15.864 15.864)">
      <g transform="translate(0 0)">
        <rect class="b" width="58" height="58" transform="translate(-0.035 -0.035)" />
        <rect class="b" width="58" height="58" transform="translate(-0.035 -0.035)" />
        <rect class="b" width="58" height="58" transform="translate(-0.035 -0.035)" />
      </g>
      <g transform="translate(12.369 7.058)">
        <path class="c"
          d="M16.011,30.046a7,7,0,0,0,7.011-7.011V9.011A7.011,7.011,0,1,0,9,9.011V23.034A7,7,0,0,0,16.011,30.046Z"
          transform="translate(0.349 -2)" />
        <path class="c"
          d="M33.046,11A11.686,11.686,0,0,1,9.674,11H5A16.349,16.349,0,0,0,19.023,27.173v7.2H23.7v-7.2A16.349,16.349,0,0,0,37.72,11Z"
          transform="translate(-5 10.034)" />
      </g>
    </g>
  </g>
</svg>