<svg width="18" height="18" viewBox="0 0 18 18" fill="none" xmlns="http://www.w3.org/2000/svg">
<path d="M13.1667 4H17.3334V5.66666H15.6667V16.5C15.6667 16.721 15.579 16.933 15.4227 17.0893C15.2664 17.2455 15.0544 17.3333 14.8334 17.3333H3.16675C2.94573 17.3333 2.73377 17.2455 2.57749 17.0893C2.42121 16.933 2.33341 16.721 2.33341 16.5V5.66666H0.666748V4H4.83342V1.5C4.83342 1.27898 4.92121 1.06702 5.07749 0.910742C5.23377 0.754461 5.44573 0.666664 5.66675 0.666664H12.3334C12.5544 0.666664 12.7664 0.754461 12.9227 0.910742C13.079 1.06702 13.1667 1.27898 13.1667 1.5V4ZM14.0001 5.66666H4.00008V15.6667H14.0001V5.66666ZM6.50008 2.33333V4H11.5001V2.33333H6.50008Z" fill="#001018"/>
</svg>
