<svg height="800px" width="800px" version="1.1" id="Capa_1" xmlns="http://www.w3.org/2000/svg" xmlns:xlink="http://www.w3.org/1999/xlink" viewBox="0 0 261.803 261.803" xml:space="preserve" fill="#000000">

<g id="SVGRepo_bgCarrier" stroke-width="0"/>

<g id="SVGRepo_tracerCarrier" stroke-linecap="round" stroke-linejoin="round"/>

<g id="SVGRepo_iconCarrier"> <path style="fill:#ffffff;" d="M249.303,78.176h-69.768V31.207c0-6.893-5.607-12.5-12.5-12.5H12.5c-6.893,0-12.5,5.607-12.5,12.5 v102.178c0,6.893,5.607,12.5,12.5,12.5h9.585l-9.045,25.029c-1.594,4.411-0.458,7.433,0.776,9.19 c1.546,2.203,4.102,3.519,6.838,3.519c2.022,0,4.073-0.699,6.096-2.078l50.082-34.146c1.038-0.707,3.652-1.514,4.907-1.514h0.527 v46.97c0,6.893,5.607,12.5,12.5,12.5h85.294c1.231,0,3.891,0.82,4.907,1.513l50.082,34.147c2.291,1.563,4.351,2.081,6.073,2.081 c2.613-0.001,4.455-1.191,5.166-1.742c1.179-0.915,4.843-4.408,2.472-10.971l-9.045-25.028h9.586c6.893,0,12.5-5.607,12.5-12.5 V90.676C261.803,83.783,256.195,78.176,249.303,78.176z M68.384,135.005L33.33,158.906l4.795-13.27 c1.288-3.562,0.856-7.274-1.184-10.179c-2.039-2.906-5.382-4.572-9.17-4.572H15V33.707h149.535v97.178H89.903 c-0.046-0.001-0.09-0.007-0.136-0.007s-0.09,0.006-0.136,0.007h-7.891C77.504,130.885,71.887,132.617,68.384,135.005z M246.803,190.354h-12.771c-3.788,0-7.131,1.667-9.171,4.572c-2.04,2.906-2.471,6.616-1.184,10.179l4.795,13.27l-35.056-23.901 c-3.501-2.387-9.118-4.119-13.356-4.119H97.268v-44.47h69.767c6.893,0,12.5-5.607,12.5-12.5V93.176h67.268V190.354z"/> </g>

</svg>